<?xml version="1.0" encoding="UTF-8"?>
<svg version="1.1" xmlns="http://www.w3.org/2000/svg" width="512" height="512">
<path d="M0 0 C0.83015625 0.66773437 1.6603125 1.33546875 2.515625 2.0234375 C20.55679376 17.35289685 31.15540872 40.65579983 34 64 C35.04511418 79.47737717 33.44425484 93.13973809 24 106 C22.76170575 107.28224206 21.51177064 108.55335258 20.25 109.8125 C16.29002941 114.07508843 16.121436 118.25613538 15.50390625 123.87890625 C14.37617499 130.8638464 10.08686941 135.5163503 4.69140625 139.81640625 C1.49361076 142.05412457 -1.11373788 142.95037855 -5 143.16796875 C-5.99 143.44253906 -6.98 143.71710938 -8 144 C-9.57275583 146.66225 -9.57275583 146.66225 -10.4375 150 C-12.92570458 157.34343495 -16.55403591 162.55403591 -22 168 C-22.27891147 171.01263725 -22.27891147 171.01263725 -22.1953125 174.5390625 C-22.18886719 175.84101563 -22.18242187 177.14296875 -22.17578125 178.484375 C-22.15906929 179.86458595 -22.14213939 181.24479429 -22.125 182.625 C-22.11497006 184.01301452 -22.10584423 185.40103589 -22.09765625 186.7890625 C-22.07401863 190.19288026 -22.04106867 193.59635506 -22 197 C-21.45400146 197.29543701 -20.90800293 197.59087402 -20.34545898 197.89526367 C-6.73726515 205.26713465 6.79350667 212.76309292 20.23681641 220.43164062 C22.93538537 221.96332529 25.64402578 223.47562454 28.35546875 224.984375 C45.94548401 234.83915374 55.93378094 244.30080228 62 264 C63.0589638 267.94004402 63.98323849 271.90366537 64.8828125 275.8828125 C65.13876694 276.99570145 65.39472137 278.10859039 65.65843201 279.25520325 C66.48809421 282.87681272 67.30749811 286.5006275 68.125 290.125 C68.40801971 291.37266144 68.69103943 292.62032288 68.9826355 293.90579224 C74.78304609 319.51094219 80.17117591 345.19309433 85 371 C85.14135376 371.75343689 85.28270752 372.50687378 85.42834473 373.28314209 C89.64897926 395.92020579 91.52482292 416.81772545 78 437 C75.1939659 440.54528613 72.18732725 443.7961581 69 447 C68.40832031 447.62648438 67.81664062 448.25296875 67.20703125 448.8984375 C37.54163938 477.8434777 -19.8604436 478.15701283 -58.51367188 478.14526367 C-60.51140403 478.14826376 -62.50913561 478.15166821 -64.50686646 478.15544128 C-69.87819671 478.16419109 -75.249511 478.16661532 -80.6208477 478.16725707 C-83.98309873 478.1679718 -87.34534579 478.17011388 -90.70759583 478.17275429 C-102.4538295 478.18197208 -114.20005189 478.18609295 -125.94628906 478.18530273 C-136.87381745 478.18470028 -147.80129674 478.19529399 -158.72881269 478.2110464 C-168.13983628 478.22412677 -177.55084379 478.22948654 -186.96187639 478.22884732 C-192.57062549 478.22859284 -198.1793307 478.231418 -203.78807068 478.24202538 C-209.05444934 478.25171676 -214.32074216 478.2517784 -219.58712387 478.24450874 C-221.51520285 478.24346478 -223.44328721 478.2458146 -225.37135696 478.2518692 C-228.01016337 478.25961754 -230.64867526 478.25492593 -233.28747559 478.24723816 C-234.04341743 478.25238172 -234.79935927 478.25752529 -235.57820845 478.26282471 C-246.19938636 478.19480056 -256.06329036 475.31121528 -264.11328125 468.109375 C-271.88127855 459.65939078 -275.49386451 449.93645842 -275.1796875 438.50390625 C-274.41014584 427.78051055 -269.84812264 418.93250195 -261.99609375 411.53515625 C-254.81542885 406.0126488 -247.7694865 403.90250576 -238.85546875 403.82421875 C-237.44204247 403.80101595 -236.02863097 403.77689842 -234.61523438 403.75195312 C-232.40346423 403.71692343 -230.19223781 403.68752882 -227.98022461 403.67407227 C-225.83381456 403.65848555 -223.68896104 403.61821624 -221.54296875 403.57421875 C-219.6252063 403.55234497 -219.6252063 403.55234497 -217.66870117 403.5300293 C-212.53751079 402.78870939 -208.59706355 400.93753644 -205.22265625 396.84375 C-201.50544051 389.33422325 -200.29168619 382.26971378 -202.921875 374.15625 C-205.38252375 368.72364886 -207.6550317 365.89494275 -213 363 C-216.2421106 362.44451946 -219.42780464 362.46572172 -222.7109375 362.49609375 C-223.63790436 362.48667252 -224.56487122 362.47725128 -225.51992798 362.46754456 C-228.47184505 362.4389694 -231.42295608 362.43581284 -234.375 362.4375 C-237.31978509 362.43388055 -240.2639846 362.42420775 -243.20864868 362.39674377 C-245.03619066 362.38009013 -246.86392465 362.37697246 -248.6914978 362.38975525 C-254.70202366 362.34055591 -260.93027039 361.85275888 -265.56234741 357.54808044 C-269.55326144 352.87391691 -270.12304819 350.28546953 -270.09765625 344.2421875 C-270.0962413 343.57913605 -270.09482635 342.91608459 -270.09336853 342.23294067 C-270.08776754 340.11358137 -270.075215 337.99432741 -270.0625 335.875 C-270.05748512 334.43880361 -270.05292219 333.00260556 -270.04882812 331.56640625 C-270.03779782 328.04423655 -270.02053259 324.52212855 -270 321 C-270.73637695 321.02094727 -271.47275391 321.04189453 -272.23144531 321.06347656 C-275.57082442 321.14667144 -278.90998549 321.19867157 -282.25 321.25 C-283.40886719 321.28351563 -284.56773437 321.31703125 -285.76171875 321.3515625 C-287.43427734 321.37089844 -287.43427734 321.37089844 -289.140625 321.390625 C-290.16704102 321.41157227 -291.19345703 321.43251953 -292.25097656 321.45410156 C-295.72287487 320.88059083 -296.88610636 319.76220442 -299 317 C-299.25 314.125 -299.25 314.125 -298 311 C-296.09132582 309.36832162 -294.08099666 307.98977998 -292.0078125 306.57421875 C-287.96419993 303.40383769 -286.00103326 298.98645539 -285 294 C-284.32846324 286.52269643 -284.95635499 279.34681486 -289.359375 273.05859375 C-291.71476303 270.24791164 -294.1993493 267.82185807 -296.9375 265.375 C-299 263 -299 263 -298.9375 260.3125 C-298 258 -298 258 -296 256 C-293.5987072 255.75390434 -293.5987072 255.75390434 -290.52047729 255.75949097 C-289.35657471 255.75674164 -288.19267212 255.75399231 -286.99349976 255.75115967 C-285.71028839 255.75835022 -284.42707703 255.76554077 -283.10498047 255.77294922 C-281.74509693 255.77351314 -280.38521278 255.77319715 -279.02532959 255.77206421 C-275.32716584 255.77148894 -271.62913107 255.78327123 -267.93099737 255.79721212 C-264.06859835 255.80969063 -260.20619658 255.8108877 -256.34378052 255.81326294 C-249.02687967 255.8194862 -241.71003839 255.83590842 -234.3931638 255.85596192 C-226.06438462 255.87829465 -217.73560264 255.88930773 -209.40680099 255.89935279 C-192.27116617 255.92027395 -175.13558938 255.95546631 -158 256 C-157.87026291 255.2434613 -157.74052582 254.48692261 -157.6068573 253.7074585 C-157.34549736 252.21983002 -157.34549736 252.21983002 -157.07885742 250.70214844 C-156.90787033 249.71873474 -156.73688324 248.73532104 -156.56071472 247.72210693 C-154.8761663 239.54411418 -149.6101627 232.00483747 -143 227 C-134.014122 221.17960175 -124.28027085 216.50046763 -114.78051758 211.59008789 C-107.57069202 207.85542082 -100.45551635 203.97706031 -93.40722656 199.94580078 C-88.20789428 197 -88.20789428 197 -86 197 C-86.33 190.4 -86.66 183.8 -87 177 C-89.0625 176.071875 -91.125 175.14375 -93.25 174.1875 C-103.95656904 168.97862733 -111.694003 162.19370996 -117 151.5 C-118.78293107 147.93272694 -120.09393626 145.42872892 -123.83984375 143.65625 C-125.88951091 143.22202039 -127.95398255 142.85221809 -130.02734375 142.55078125 C-136.14866082 141.41660818 -140.59042927 137.73485629 -144.4375 133 C-147.64831772 126.83522998 -148.38843955 121.52688555 -148.375 114.6875 C-148.37338867 113.84171387 -148.37177734 112.99592773 -148.37011719 112.12451172 C-148.17577112 102.2643067 -144.97460999 95.97460999 -138 89 C-138.40992188 88.23816406 -138.81984375 87.47632812 -139.2421875 86.69140625 C-139.78101563 85.65886719 -140.31984375 84.62632813 -140.875 83.5625 C-141.40867188 82.55316406 -141.94234375 81.54382813 -142.4921875 80.50390625 C-146.0065699 72.33706425 -146.33910473 64.43648724 -146.3125 55.625 C-146.32861328 54.56539063 -146.34472656 53.50578125 -146.36132812 52.4140625 C-146.36949693 39.08257022 -142.23853418 27.78296507 -134.8125 16.75 C-125.47516397 7.62016032 -115.01871413 1.49595694 -101.9375 0.125 C-95.62714541 -0.60231859 -91.85390032 -2.56268801 -86.71875 -6.1875 C-61.66578438 -22.88947708 -22.77111459 -18.56839209 0 0 Z " fill="#3D3D50" transform="translate(361,25)"/>
<path d="M0 0 C0.4125 1.23492187 0.825 2.46984375 1.25 3.7421875 C11.98156006 35.41068725 28.02138885 71.02138885 52 95 C54.90407872 95.19458397 54.90407872 95.19458397 58 94 C60.12386172 91.79374709 61.76584597 89.79672787 63.5 87.3125 C64.01062988 86.60262939 64.52125977 85.89275879 65.04736328 85.16137695 C66.72760833 82.79325146 68.36865294 80.40204729 70 78 C70.5578418 77.18241211 71.11568359 76.36482422 71.69042969 75.52246094 C85.07627555 55.69242857 96.76300038 34.64536822 104.34912109 11.90332031 C105.72815446 7.87070811 107.37068048 3.93667885 109 0 C118.27972263 4.34453775 127.22887775 9.1365798 136 14.4375 C136.87100342 14.95014404 137.74200684 15.46278809 138.6394043 15.9909668 C150.41401012 23.2348821 157.33214235 32.92554296 160.73828125 46.2734375 C161.27646173 48.63760544 161.80043052 51.00503942 162.3125 53.375 C162.60573193 54.68709983 162.90011682 55.99894243 163.19555664 57.31054688 C163.82106599 60.09834551 164.43850987 62.8877616 165.04980469 65.67871094 C165.99735595 70.00076733 166.96988468 74.3169768 167.9453125 78.6328125 C172.37647217 98.28742973 176.64668962 117.97829713 180.7021637 137.71395874 C181.57485187 141.96050517 182.47364682 146.20023964 183.390625 150.4375 C187.58997065 170.51578508 189.25009956 190.07561858 178 208 C175.60705913 211.34281053 173.06047013 214.23811232 170 217 C169.54625 217.45761719 169.0925 217.91523438 168.625 218.38671875 C157.52088991 228.96338361 141.33407806 232.90797214 127 237 C125.88818359 237.31928467 125.88818359 237.31928467 124.75390625 237.64501953 C107.52573885 242.46092738 88.87354739 244.86330193 71 244 C71.47770523 242.06213915 71.95721571 240.12472326 72.4375 238.1875 C72.70433594 237.10855469 72.97117187 236.02960938 73.24609375 234.91796875 C73.76077412 232.9259157 74.34937175 230.95188476 75 229 C76.03651101 217.46256018 75.38666064 206.77453507 71 196 C70.33270152 194.3335862 69.66594561 192.66695491 69 191 C69.71430176 190.86948242 70.42860352 190.73896484 71.16455078 190.60449219 C103.04585722 186.45306221 103.04585722 186.45306221 131 173 C132.42491735 151.5599645 127.28273797 129.86695736 123 109 C120.66705225 108.95758277 118.33297433 108.95907063 116 109 C114.60712194 110.17036305 114.60712194 110.17036305 114.8125 113.4375 C114.86787283 117.38281403 115.52587779 120.98994323 116.359375 124.8359375 C119.1744251 138.73953858 121.23285409 152.7959003 121 167 C115.0358229 170.25318751 108.7305795 171.39379848 102 170 C99.16796875 168.1015625 99.16796875 168.1015625 97 165 C96.35704726 161.62037664 96.40279659 158.30641319 96.4375 154.875 C96.21419505 143.48254696 94.53921674 133.28593489 86 125 C79.14524121 120.0324691 73.55130031 117.42025083 65 118 C63.906875 118.495 62.81375 118.99 61.6875 119.5 C55.71588041 121.92913339 50.50711588 121.98493838 44.5 119.625 C13.437662 98.74703511 -10.54653262 47.2036702 -21 13 C-21 12.01 -21 11.02 -21 10 C-17.87852455 8.32666842 -14.75226502 6.66248284 -11.625 5 C-10.73554688 4.52304688 -9.84609375 4.04609375 -8.9296875 3.5546875 C-8.07890625 3.10351562 -7.228125 2.65234375 -6.3515625 2.1875 C-5.56604004 1.76855469 -4.78051758 1.34960938 -3.97119141 0.91796875 C-2 0 -2 0 0 0 Z " fill="#787895" transform="translate(252,247)"/>
<path d="M0 0 C18.31158368 13.70254561 29.86123322 33.15498159 33.63183594 55.72363281 C35.67053493 70.87771663 34.72089233 83.15339357 25.296875 95.71875 C22.85056944 94.5896859 20.80621813 93.36502063 18.609375 91.78125 C12.82779424 88.18139783 7.39026604 86.68662936 0.609375 86.28125 C-4.24509637 85.9567171 -6.79687748 84.71656786 -10.703125 81.71875 C-14.47269135 80.05312766 -17.58979978 79.69561987 -21.640625 79.59375 C-35.14799237 78.47577251 -47.01822577 68.49557334 -55.703125 58.71875 C-61.96492657 50.8244073 -67.23225639 40.66803466 -68.328125 30.53125 C-68.451875 29.603125 -68.575625 28.675 -68.703125 27.71875 C-71.36356248 25.50050942 -71.36356248 25.50050942 -73.5703125 25.859375 C-89.05276674 32.09772653 -99.3024788 51.23908041 -105.703125 65.71875 C-107.6370268 70.63678773 -109.23289761 75.64314086 -110.703125 80.71875 C-115.265903 80.16175536 -115.265903 80.16175536 -117.1796875 78.22265625 C-125.1750004 64.70677016 -125.85125947 48.27163587 -122.4609375 33.0390625 C-119.05319641 22.60505111 -112.16400009 15.04608818 -102.703125 9.71875 C-97.37632377 7.06173643 -93.01291215 6.28599153 -87.203125 5.90625 C-81.31662292 5.36838432 -77.61430545 4.88746404 -73.5 0.375 C-55.386102 -16.32128859 -19.09689119 -12.56037138 0 0 Z " fill="#585874" transform="translate(349.703125,30.28125)"/>
<path d="M0 0 C17.18557118 -0.09357769 34.37106247 -0.16404483 51.55683041 -0.20724869 C59.53707857 -0.22784514 67.51716812 -0.25590961 75.49731445 -0.30175781 C82.45548426 -0.3417153 89.41353915 -0.36745401 96.37182051 -0.37635398 C100.0538157 -0.38155374 103.73548224 -0.39371335 107.41737175 -0.42292023 C111.5348231 -0.45531516 115.65170862 -0.45595372 119.76928711 -0.45410156 C121.58622322 -0.47567322 121.58622322 -0.47567322 123.43986511 -0.49768066 C131.33489237 -0.45931231 138.26162982 0.41062284 144.15625 6.0703125 C144.5996875 6.74835938 145.043125 7.42640625 145.5 8.125 C145.9640625 8.80820312 146.428125 9.49140625 146.90625 10.1953125 C150.20866337 15.64429456 149.48658765 21.79253179 149 28 C147.3866183 33.64683596 142.76662253 37.79912873 138 41 C134.30640719 42.73536092 131.41772643 43.24819212 127.34953308 43.24050903 C126.22357727 43.24325836 125.09762146 43.24600769 123.93754578 43.24884033 C122.09903801 43.2380545 122.09903801 43.2380545 120.22338867 43.22705078 C118.27645615 43.22748886 118.27645615 43.22748886 116.29019165 43.22793579 C112.73889245 43.22850884 109.18772877 43.21676238 105.63646102 43.20278788 C101.92222391 43.19027248 98.20798358 43.18910938 94.49372864 43.18673706 C87.46379573 43.18052467 80.43392514 43.16411712 73.40401965 43.14403808 C65.39922802 43.12167158 57.39443339 43.11068376 49.38961828 43.10064721 C32.92637572 43.07975067 16.46319582 43.04457939 0 43 C0.27714844 42.26394531 0.55429688 41.52789062 0.83984375 40.76953125 C1.20207031 39.79371094 1.56429687 38.81789063 1.9375 37.8125 C2.47697266 36.36810547 2.47697266 36.36810547 3.02734375 34.89453125 C6.74436631 23.83303037 5.57852586 13.55451343 1 3 C0.67 2.01 0.34 1.02 0 0 Z " fill="#FDFDFD" transform="translate(82,292)"/>
<path d="M0 0 C0.4125 1.23492187 0.825 2.46984375 1.25 3.7421875 C11.98156006 35.41068725 28.02138885 71.02138885 52 95 C54.90407872 95.19458397 54.90407872 95.19458397 58 94 C60.12386172 91.79374709 61.76584597 89.79672787 63.5 87.3125 C64.01062988 86.60262939 64.52125977 85.89275879 65.04736328 85.16137695 C66.72760833 82.79325146 68.36865294 80.40204729 70 78 C70.5578418 77.18241211 71.11568359 76.36482422 71.69042969 75.52246094 C85.07627555 55.69242857 96.76300038 34.64536822 104.34912109 11.90332031 C105.72854797 7.8695574 107.38245144 3.94239233 109 0 C111.58587003 1.26587358 114.16865501 2.53745849 116.75 3.8125 C117.84441406 4.34713867 117.84441406 4.34713867 118.9609375 4.89257812 C122.55910218 6.67530517 125.89632709 8.41088339 129 11 C128.45353548 16.99503727 126.65782794 21.88155415 124.25 27.375 C123.85586914 28.28056641 123.46173828 29.18613281 123.05566406 30.11914062 C109.91027075 59.7541959 93.5107002 88.45107044 71 112 C70.49855469 112.52980469 69.99710937 113.05960937 69.48046875 113.60546875 C64.34365278 118.89747553 60.57590252 121.09142969 53.1875 121.3125 C44.28123663 121.14347602 39.51941959 116.01035628 33.60546875 109.890625 C13.11191065 87.15414374 -21 41.05414954 -21 10 C-17.87852455 8.32666842 -14.75226502 6.66248284 -11.625 5 C-10.73554688 4.52304688 -9.84609375 4.04609375 -8.9296875 3.5546875 C-8.07890625 3.10351562 -7.228125 2.65234375 -6.3515625 2.1875 C-5.56604004 1.76855469 -4.78051758 1.34960938 -3.97119141 0.91796875 C-2 0 -2 0 0 0 Z " fill="#797996" transform="translate(252,247)"/>
<path d="M0 0 C1.24508331 -0.00845947 2.49016663 -0.01691895 3.77297974 -0.02563477 C5.15521371 -0.01980168 6.53744639 -0.01365716 7.91967773 -0.00723267 C9.37336624 -0.01129714 10.82705166 -0.01663832 12.2807312 -0.02316284 C16.23111905 -0.03685716 20.18127225 -0.03152917 24.13166428 -0.02202559 C28.26226187 -0.0144399 32.39283913 -0.02147156 36.5234375 -0.02618408 C43.46056736 -0.03164483 50.39760147 -0.02444169 57.3347168 -0.01016235 C65.35945974 0.00616481 73.38397403 0.00087653 81.40871143 -0.01564157 C88.29370744 -0.02924739 95.17863454 -0.03118054 102.06363964 -0.02332556 C106.1778914 -0.01864405 110.29203563 -0.01803726 114.40628052 -0.02793503 C118.27393442 -0.03658932 122.14129301 -0.03061123 126.00891495 -0.01325226 C127.42992792 -0.00927914 128.85096566 -0.01043555 130.27196884 -0.01704025 C132.20848464 -0.02521243 134.14505463 -0.01315709 136.08154297 0 C137.16628403 0.00113108 138.25102509 0.00226215 139.36863708 0.00342751 C142.04077148 0.38095093 142.04077148 0.38095093 143.88896179 1.7430172 C145.59072707 4.16301659 145.42940912 6.10470805 145.43920898 9.03720093 C145.44307617 10.14192749 145.44694336 11.24665405 145.45092773 12.38485718 C145.43352539 14.11542358 145.43352539 14.11542358 145.41577148 15.88095093 C145.42737305 17.03466187 145.43897461 18.1883728 145.45092773 19.37704468 C145.44706055 20.48177124 145.44319336 21.5864978 145.43920898 22.72470093 C145.4358252 23.73725952 145.43244141 24.74981812 145.42895508 25.7930603 C145.04077148 28.38095093 145.04077148 28.38095093 143.88896179 30.01888466 C141.25469867 31.96026533 139.33594071 31.75850844 136.08154297 31.76190186 C134.83645966 31.77036133 133.59137634 31.7788208 132.30856323 31.78753662 C130.92632926 31.78170354 129.54409658 31.77555902 128.16186523 31.76913452 C126.70817673 31.773199 125.25449131 31.77854018 123.80081177 31.7850647 C119.85042392 31.79875902 115.90027072 31.79343102 111.94987869 31.78392744 C107.8192811 31.77634175 103.68870384 31.78337341 99.55810547 31.78808594 C92.62097561 31.79354668 85.6839415 31.78634355 78.74682617 31.77206421 C70.72208323 31.75573704 62.69756893 31.76102533 54.67283154 31.77754343 C47.78783553 31.79114924 40.90290843 31.7930824 34.01790333 31.78522742 C29.90365157 31.7805459 25.78950734 31.77993912 21.67526245 31.78983688 C17.80760855 31.79849117 13.94024996 31.79251308 10.07262802 31.77515411 C8.65161505 31.771181 7.2305773 31.7723374 5.80957413 31.77894211 C3.87305833 31.78711429 1.93648834 31.77505894 0 31.76190186 C-1.08474106 31.76077078 -2.16948212 31.7596397 -3.28709412 31.75847435 C-5.95922852 31.38095093 -5.95922852 31.38095093 -7.80741882 30.01888466 C-9.5091841 27.59888527 -9.34786615 25.6571938 -9.35766602 22.72470093 C-9.3615332 21.61997437 -9.36540039 20.5152478 -9.36938477 19.37704468 C-9.3577832 18.22333374 -9.34618164 17.0696228 -9.33422852 15.88095093 C-9.34583008 14.72723999 -9.35743164 13.57352905 -9.36938477 12.38485718 C-9.36551758 11.28013062 -9.36165039 10.17540405 -9.35766602 9.03720093 C-9.35428223 8.02464233 -9.35089844 7.01208374 -9.34741211 5.96884155 C-8.95922852 3.38095093 -8.95922852 3.38095093 -7.80741882 1.7430172 C-5.17315571 -0.19836347 -3.25439774 0.00339341 0 0 Z " fill="#FEC575" transform="translate(110.959228515625,344.6190490722656)"/>
<path d="M0 0 C1.18571594 -0.00021904 1.18571594 -0.00021904 2.39538574 -0.0004425 C5.00881695 0.0002543 7.62217694 0.00803584 10.2355957 0.01586914 C12.04734763 0.01773415 13.85910005 0.01915766 15.67085266 0.02015686 C20.44004711 0.02397554 25.20921113 0.03380031 29.97839355 0.04486084 C34.84472237 0.0550889 39.71105611 0.05965747 44.57739258 0.06469727 C54.12623408 0.07542313 63.67505299 0.09249179 73.22387695 0.11352539 C72.74176758 0.91016602 72.2596582 1.70680664 71.76293945 2.52758789 C70.81547852 4.11700195 70.81547852 4.11700195 69.84887695 5.73852539 C69.22239258 6.78266602 68.5959082 7.82680664 67.95043945 8.90258789 C63.47981661 17.21673263 62.76935864 26.07802415 64.98168945 35.25805664 C66.77093709 40.40742682 69.03532224 44.71551889 72.22387695 49.11352539 C72.55387695 50.10352539 72.88387695 51.09352539 73.22387695 52.11352539 C63.07907173 52.20644863 52.93436876 52.27740334 42.78922367 52.32077408 C38.07775335 52.34159616 33.36657548 52.36981483 28.65527344 52.4152832 C24.10353685 52.45893376 19.55208052 52.48270291 15.00015068 52.49303436 C13.26869741 52.5003914 11.53725844 52.5147577 9.80592537 52.53644562 C-1.94293054 52.67768785 -11.22630896 52.07672593 -20.2722168 43.82836914 C-25.77439477 37.55445711 -27.12980373 30.29711196 -27.0612793 22.19165039 C-26.65385587 17.7937098 -25.21504165 14.73802943 -22.77612305 11.11352539 C-22.19862305 10.22665039 -21.62112305 9.33977539 -21.02612305 8.42602539 C-14.87830402 2.10743362 -8.6719306 -0.04175861 0 0 Z " fill="#FDFDFD" transform="translate(186.776123046875,439.886474609375)"/>
<path d="M0 0 C9.60597615 -0.11625873 19.21170716 -0.20489905 28.8182354 -0.25906086 C33.27979398 -0.28506644 37.74086842 -0.32029711 42.20214844 -0.37719727 C46.51400583 -0.4318425 50.8253999 -0.46148839 55.13757706 -0.47438622 C56.77612722 -0.48356819 58.41465431 -0.50149774 60.05300522 -0.52865028 C69.21933246 -0.67441291 77.26134961 -0.64155402 85 5 C87.25390625 7.38671875 87.25390625 7.38671875 88.5625 9.6875 C89.01753906 10.45449219 89.47257812 11.22148437 89.94140625 12.01171875 C92.46986718 16.76074685 92.64356907 20.64191328 92 26 C89.71735638 33.29592634 85.74946063 38.36361067 79 42 C75.27476536 43.24720268 71.65542209 43.12016228 67.75292969 43.11352539 C66.6694072 43.11374443 66.6694072 43.11374443 65.56399536 43.1139679 C63.18325772 43.11327284 60.80259892 43.1054995 58.421875 43.09765625 C56.76849409 43.09579063 55.11511262 43.0943674 53.46173096 43.09336853 C49.11505603 43.08955473 44.76841463 43.07973415 40.42175293 43.06866455 C35.98429823 43.05842599 31.54683811 43.05386567 27.109375 43.04882812 C18.40623463 43.03811086 9.70312149 43.02104809 1 43 C1.35282547 42.11413208 1.70565094 41.22826416 2.06916809 40.31555176 C2.52692123 39.14987671 2.98467438 37.98420166 3.45629883 36.78320312 C3.9122493 35.62921021 4.36819977 34.47521729 4.83796692 33.28625488 C6.32234046 29.08841415 6.70063669 25.94895849 6.6875 21.5 C6.71199219 20.1903125 6.73648438 18.880625 6.76171875 17.53125 C6.38907392 13.33881959 4.74729203 9.99628251 2.95239258 6.21679688 C2.4023909 5.05112183 1.85238922 3.88544678 1.28572083 2.68444824 C0.86143295 1.79858032 0.43714508 0.9127124 0 0 Z " fill="#FDFDFD" transform="translate(164,386)"/>
<path d="M0 0 C0.27038086 0.65669678 0.54076172 1.31339355 0.81933594 1.98999023 C10.1899154 24.66043029 19.86276826 47.21461465 33 68 C33.67546875 69.07121094 34.3509375 70.14242187 35.046875 71.24609375 C48.88632248 93.79292036 48.88632248 93.79292036 69 109 C75.55083357 109.59553032 79.97815393 108.72687369 86 106 C92.98487313 105.07746959 99.1297456 107.56204447 104.984375 111.25 C111.93558326 116.66333033 116.09074586 124.51155929 118 133 C118.33542634 136.58034988 118.46032042 140.15626946 118.5625 143.75 C118.62244966 145.61991915 118.68608821 147.48972469 118.75390625 149.359375 C118.77783447 150.17889648 118.8017627 150.99841797 118.82641602 151.84277344 C118.92820951 154.18315833 118.92820951 154.18315833 120 157 C124.29 157.66 128.58 158.32 133 159 C128.09097174 162.27268551 122.36044396 163.16903316 116.6875 164.625 C115.46353516 164.94984375 114.23957031 165.2746875 112.97851562 165.609375 C111.20057617 166.06957031 111.20057617 166.06957031 109.38671875 166.5390625 C108.30608154 166.81959473 107.22544434 167.10012695 106.11206055 167.38916016 C102.99101098 168.00176438 100.1715722 168.11134591 97 168 C97.433125 167.21302734 97.433125 167.21302734 97.875 166.41015625 C102.06211673 157.6724578 102.93796004 147.15857657 100.01171875 137.859375 C98.82932632 135.41405568 97.54721054 133.22888011 96 131 C95.1028125 129.6078125 95.1028125 129.6078125 94.1875 128.1875 C86.82881582 120.82881582 78.99563037 118.7106067 68.88671875 118.5859375 C67.91716751 118.56657135 66.94761627 118.5472052 65.94868469 118.5272522 C62.86171172 118.46762564 59.77470112 118.4211386 56.6875 118.375 C54.59047882 118.33680466 52.49347306 118.29775202 50.39648438 118.2578125 C45.26444869 118.16193791 40.13233957 118.07784423 35 118 C35.02094727 117.12263184 35.04189453 116.24526367 35.06347656 115.34130859 C35.131926 112.06483317 35.18193051 108.78912488 35.21972656 105.51220703 C35.23975843 104.09802205 35.26699248 102.68391903 35.30175781 101.27001953 C35.35065489 99.22928581 35.37305123 97.1896531 35.390625 95.1484375 C35.41157227 93.92302246 35.43251953 92.69760742 35.45410156 91.43505859 C34.80529762 86.52717071 32.61906212 83.42281216 28.9375 80.1875 C25.6773314 78.18933215 22.85105505 77.84216597 19.11328125 77.68359375 C18.17548828 77.64169922 17.23769531 77.59980469 16.27148438 77.55664062 C15.29501953 77.51732422 14.31855469 77.47800781 13.3125 77.4375 C12.32443359 77.39431641 11.33636719 77.35113281 10.31835938 77.30664062 C7.87904454 77.20058346 5.43962887 77.09852286 3 77 C3.42152344 76.25234375 3.84304687 75.5046875 4.27734375 74.734375 C4.82519531 73.74953125 5.37304688 72.7646875 5.9375 71.75 C6.75541016 70.28820312 6.75541016 70.28820312 7.58984375 68.796875 C11.29804248 61.44210965 11.19320635 52.01485556 8.875 44.1875 C4.66932002 33.60546649 -2.96829025 28.55439675 -13.125 24.125 C-14.07375 23.75375 -15.0225 23.3825 -16 23 C-16.77807161 16.93104145 -14.49495666 12.76949361 -11 8 C-3.30514096 0 -3.30514096 0 0 0 Z " fill="#595975" transform="translate(231,258)"/>
<path d="M0 0 C0.28496338 0.78141357 0.28496338 0.78141357 0.57568359 1.57861328 C10.43290298 28.43587986 22.21200987 54.67755409 39 78 C40.07314453 79.49853516 40.07314453 79.49853516 41.16796875 81.02734375 C50.38085154 93.66866556 50.38085154 93.66866556 62 104 C66.23708603 104.07566225 68.25545794 103.63286075 71.5 100.875 C72.325 99.92625 73.15 98.9775 74 98 C75.0731386 96.9519013 76.15170999 95.90934892 77.234375 94.87109375 C81.17730109 90.94254291 84.4791929 86.68177783 87.75 82.1875 C88.35706787 81.35565186 88.96413574 80.52380371 89.58959961 79.66674805 C95.55470949 71.38826879 100.93248668 62.85204577 106 54 C106.5141748 53.10716309 107.02834961 52.21432617 107.55810547 51.29443359 C116.71875923 35.25984979 125.14616414 18.56150758 131 1 C134.82097239 1.53069061 137.06171403 2.49701566 140 5 C139.45353548 10.99503727 137.65782794 15.88155415 135.25 21.375 C134.85586914 22.28056641 134.46173828 23.18613281 134.05566406 24.11914062 C120.91027075 53.7541959 104.5107002 82.45107044 82 106 C81.49855469 106.52980469 80.99710937 107.05960937 80.48046875 107.60546875 C75.34365278 112.89747553 71.57590252 115.09142969 64.1875 115.3125 C55.28123663 115.14347602 50.51941959 110.01035628 44.60546875 103.890625 C24.11191065 81.15414374 -10 35.05414954 -10 4 C-8.71086513 3.32845067 -7.41859796 2.66291141 -6.125 2 C-5.40570313 1.62875 -4.68640625 1.2575 -3.9453125 0.875 C-2 0 -2 0 0 0 Z " fill="#FBFBFC" transform="translate(241,253)"/>
<path d="M0 0 C3.63 0 7.26 0 11 0 C11.3403125 0.78503906 11.680625 1.57007813 12.03125 2.37890625 C16.02252061 11.03019759 20.09983426 16.07874735 28.25 20.9375 C36.59630765 23.30228717 44.73973339 22.20273776 53 20 C52.09407526 30.64461568 47.28125936 38.46896132 39.33203125 45.46875 C27.62691524 53.94397748 10.40387769 54.46721352 -3.3515625 52.52734375 C-15.96123006 49.8066532 -26.71823199 43.26522395 -33.8125 32.5 C-36.15792184 28.76449978 -37.72646705 25.22440197 -39 21 C-38.23042969 21.23589844 -38.23042969 21.23589844 -37.4453125 21.4765625 C-28.86771692 23.31266124 -19.70739626 23.0662278 -12.08203125 18.5390625 C-5.34952421 13.56231245 -2.77293326 7.78554338 0 0 Z " fill="#FBD1C7" transform="translate(289,142)"/>
<path d="M0 0 C0.94735519 0.0028299 1.89471039 0.00565979 2.87077332 0.00857544 C5.88663541 0.01974063 8.90219691 0.04483861 11.91796875 0.0703125 C13.96679258 0.08034703 16.01562107 0.08947205 18.06445312 0.09765625 C23.07824023 0.11966801 28.09180358 0.15417279 33.10546875 0.1953125 C31.95930252 2.49319242 30.80353482 4.78476441 29.6328125 7.0703125 C29.10816406 8.1015625 28.58351562 9.1328125 28.04296875 10.1953125 C27.51574219 11.2265625 26.98851562 12.2578125 26.4453125 13.3203125 C22.77005109 21.20658771 23.36177322 29.51735301 26.04296875 37.6640625 C27.91841576 42.1320392 30.4938845 46.12937295 33.10546875 50.1953125 C33.43546875 50.8553125 33.76546875 51.5153125 34.10546875 52.1953125 C28.28886814 52.29476119 22.47277083 52.3670538 16.65551758 52.41503906 C14.67984385 52.43505896 12.70422866 52.46228342 10.72875977 52.49707031 C7.87631725 52.54601457 5.02466326 52.56837775 2.171875 52.5859375 C0.86350426 52.61690521 0.86350426 52.61690521 -0.47129822 52.64849854 C-9.05157984 52.65158391 -16.04450181 49.69676046 -22.390625 43.91015625 C-27.58688539 37.98506972 -29.33844327 30.88147719 -29.2265625 23.171875 C-28.2803881 14.68969979 -23.44721786 9.17719818 -17.17578125 3.7890625 C-11.57806775 -0.12166885 -6.61079544 -0.07459875 0 0 Z " fill="#75ABE0" transform="translate(125.89453125,439.8046875)"/>
<path d="M0 0 C1.89878906 -0.04253906 1.89878906 -0.04253906 3.8359375 -0.0859375 C5.05023438 -0.08851563 6.26453125 -0.09109375 7.515625 -0.09375 C8.61680664 -0.10083984 9.71798828 -0.10792969 10.85253906 -0.11523438 C15.34146446 0.83792471 16.63255963 3.78935055 19.015625 7.4375 C24.02042298 17.9237434 23.40600584 32.67487355 19.9375 43.5625 C18.63275824 46.96682619 17.28698397 49.86091043 14.75 52.5 C10.1163819 53.36912658 5.39291091 53.10176951 0.6875 53.0625 C-0.59833984 53.08634766 -1.88417969 53.11019531 -3.20898438 53.13476562 C-12.84904258 53.1200029 -19.58625615 51.33463383 -27.0625 45.1875 C-27.784375 44.300625 -28.50625 43.41375 -29.25 42.5 C-29.7140625 41.9946875 -30.178125 41.489375 -30.65625 40.96875 C-35.82633436 34.41997648 -35.10289067 26.37096246 -34.25 18.5 C-32.63329512 11.90263909 -27.86161804 7.12187765 -22.25 3.5 C-14.97473521 -0.09553017 -8.01465679 -0.01652507 0 0 Z " fill="#FCD2C8" transform="translate(295.25,439.5)"/>
<path d="M0 0 C6.51020197 -0.12757048 13.02007749 -0.21467172 19.53125 -0.2746582 C21.74263555 -0.29968484 23.95393937 -0.3337169 26.16503906 -0.37719727 C29.35762791 -0.43837176 32.54911613 -0.46632914 35.7421875 -0.48828125 C36.71864227 -0.51408768 37.69509705 -0.5398941 38.70114136 -0.56648254 C45.72381665 -0.56930332 51.17854911 0.97482014 57 5 C62.63928399 11.00988987 64.38172007 15.9406185 64.2734375 24.1484375 C63.68563383 30.27839009 61.03203705 34.33027876 56.5 38.375 C52.47539566 41.64956444 49.29927305 43.25411996 44.04785156 43.22705078 C43.06713684 43.22689972 42.08642212 43.22674866 41.07598877 43.22659302 C39.4992337 43.21110916 39.4992337 43.21110916 37.890625 43.1953125 C36.80867859 43.1924826 35.72673218 43.18965271 34.61199951 43.18673706 C31.15788696 43.17554609 27.70403412 43.1504432 24.25 43.125 C21.90755583 43.11496881 19.56510759 43.1058432 17.22265625 43.09765625 C11.48168229 43.0756103 5.7408597 43.04214334 0 43 C0.34933594 42.32453125 0.69867188 41.6490625 1.05859375 40.953125 C1.51363281 40.06109375 1.96867187 39.1690625 2.4375 38.25 C2.88996094 37.36828125 3.34242188 36.4865625 3.80859375 35.578125 C7.26872051 28.09063759 7.58408324 17.63787547 4.91796875 9.83203125 C3.70952726 7.47435146 2.39681299 5.24863993 1 3 C0.67 2.01 0.34 1.02 0 0 Z " fill="#DE888C" transform="translate(259,386)"/>
<path d="M0 0 C19.24496658 -0.07002702 38.48990737 -0.12295719 57.73497486 -0.15543652 C66.67044644 -0.1709169 75.60583894 -0.19202872 84.54125977 -0.22631836 C92.32779275 -0.25618495 100.11426848 -0.27556648 107.90085715 -0.28226548 C112.02524794 -0.28618241 116.14947488 -0.29541187 120.27381325 -0.31719017 C124.15369113 -0.33751214 128.03333727 -0.34384257 131.91326332 -0.33932304 C133.33912921 -0.34015018 134.76500264 -0.34614147 136.1908226 -0.35761642 C138.13401979 -0.37249158 140.07734057 -0.36717767 142.02058411 -0.36076355 C143.10922162 -0.36352893 144.19785913 -0.36629431 145.31948566 -0.36914349 C148 0 148 0 149.84945202 1.36080456 C151.54887013 3.78197991 151.38863833 5.72396597 151.3984375 8.65625 C151.40230469 9.76097656 151.40617188 10.86570312 151.41015625 12.00390625 C151.39275391 13.73447266 151.39275391 13.73447266 151.375 15.5 C151.38660156 16.65371094 151.39820313 17.80742187 151.41015625 18.99609375 C151.40628906 20.10082031 151.40242187 21.20554687 151.3984375 22.34375 C151.39505371 23.35630859 151.39166992 24.36886719 151.38818359 25.41210938 C151 28 151 28 149.84945202 29.63919544 C147.20724597 31.58329888 145.28237267 31.36904921 142.02058411 31.36076355 C140.14645592 31.36694954 140.14645592 31.36694954 138.23446655 31.3732605 C136.84747099 31.36264306 135.46047761 31.35173863 134.07348633 31.34057617 C132.61493446 31.33973008 131.15638132 31.3402047 129.6978302 31.34190369 C125.73521276 31.34276576 121.77286677 31.32510583 117.81031251 31.30418181 C113.67032379 31.2854503 109.53032912 31.28366736 105.39030457 31.28010559 C97.54924918 31.27077474 89.70831901 31.24614693 81.86731881 31.21605712 C72.94119731 31.18254543 64.01506989 31.16603524 55.08890116 31.15097082 C36.72586307 31.11959825 18.3629416 31.06681758 0 31 C0 30.67 0 30.34 0 30 C24.75 29.67 49.5 29.34 75 29 C78.96 19.76 82.92 10.52 87 1 C58.29 1 29.58 1 0 1 C0 0.67 0 0.34 0 0 Z " fill="#EA8E4F" transform="translate(105,345)"/>
<path d="M0 0 C2.26261902 0.02593994 2.26261902 0.02593994 5.88761902 0.46343994 C5.40550964 1.26008057 4.92340027 2.05672119 4.42668152 2.87750244 C3.47922058 4.4669165 3.47922058 4.4669165 2.51261902 6.08843994 C1.88613464 7.13258057 1.25965027 8.17672119 0.61418152 9.25250244 C-3.85991787 17.57311262 -4.57063759 26.41242668 -2.35456848 35.60797119 C-0.56532084 40.75734137 1.6990643 45.06543344 4.88761902 49.46343994 C5.21761902 50.45343994 5.54761902 51.44343994 5.88761902 52.46343994 C-20.18238098 52.46343994 -46.25238098 52.46343994 -73.11238098 52.46343994 C-73.11238098 52.13343994 -73.11238098 51.80343994 -73.11238098 51.46343994 C-51.66238098 51.13343994 -30.21238098 50.80343994 -8.11238098 50.46343994 C-9.10238098 48.48343994 -10.09238098 46.50343994 -11.11238098 44.46343994 C-11.92226471 44.45535309 -12.73214844 44.44726624 -13.5665741 44.43893433 C-21.18905829 44.36107955 -28.81134853 44.27381699 -36.43359947 44.17591286 C-40.35253211 44.12590992 -44.27143727 44.07958051 -48.19050598 44.04156494 C-51.97074331 44.00476224 -55.75075289 43.95841652 -59.53079605 43.90537643 C-60.97488546 43.88680567 -62.41902375 43.87170766 -63.86318588 43.86009598 C-65.88173161 43.84328002 -67.90015286 43.81310889 -69.91853333 43.7822876 C-71.06881012 43.76896393 -72.21908691 43.75564026 -73.40422058 43.74191284 C-76.11238098 43.46343994 -76.11238098 43.46343994 -78.11238098 41.46343994 C-78.36238098 37.96343994 -78.36238098 37.96343994 -78.11238098 34.46343994 C-76.11238098 32.46343994 -76.11238098 32.46343994 -73.51811218 32.22293091 C-71.87263901 32.22959274 -71.87263901 32.22959274 -70.19392395 32.23638916 C-68.95278839 32.23654022 -67.71165283 32.23669128 -66.4329071 32.23684692 C-65.07345928 32.24706094 -63.71401308 32.25749294 -62.35456848 32.26812744 C-60.96737369 32.2718571 -59.58017627 32.27470429 -58.19297791 32.27670288 C-54.53998047 32.2843431 -50.88714181 32.30399479 -47.23420715 32.32611084 C-43.50742236 32.34656098 -39.78061195 32.35570281 -36.05378723 32.36578369 C-28.73991273 32.38724043 -21.42616909 32.42138092 -14.11238098 32.46343994 C-14.11238098 28.83343994 -14.11238098 25.20343994 -14.11238098 21.46343994 C-15.73249084 21.44885742 -17.35260071 21.4342749 -19.02180481 21.41925049 C-25.02105509 21.36136721 -31.0199261 21.2841335 -37.01887512 21.20098877 C-39.61744541 21.16769251 -42.21608885 21.1396754 -44.81477356 21.11700439 C-48.54580417 21.08354543 -52.27616159 21.03123265 -56.00691223 20.97515869 C-57.17261246 20.96876877 -58.33831268 20.96237885 -59.53933716 20.95579529 C-60.62023117 20.93600113 -61.70112518 20.91620697 -62.81477356 20.89581299 C-63.76741592 20.88470993 -64.72005829 20.87360687 -65.7015686 20.86216736 C-68.53785981 20.39306944 -69.44957877 19.77909753 -71.11238098 17.46343994 C-71.74846891 12.3747365 -71.74846891 12.3747365 -69.94851685 9.79602051 C-67.36154265 7.91851699 -65.53754762 8.11159154 -62.35920715 8.14215088 C-61.17755478 8.14495056 -59.9959024 8.14775024 -58.77844238 8.15063477 C-56.86126152 8.17398895 -56.86126152 8.17398895 -54.90534973 8.19781494 C-52.89871018 8.19575299 -50.89206969 8.19364997 -48.88543415 8.18913651 C-43.93506729 8.18187225 -38.98510199 8.20470607 -34.0349884 8.25396729 C-31.25839384 8.28034973 -28.48289972 8.28811454 -25.70620728 8.27600098 C-23.09181142 8.26571867 -20.47712289 8.2833986 -17.86315918 8.33203125 C-11.56107958 8.48438545 -11.56107958 8.48438545 -6.09153748 5.86712646 C-4.51209744 4.00241978 -4.51209744 4.00241978 -3.37380981 2.00939941 C-2.11238098 0.46343994 -2.11238098 0.46343994 0 0 Z " fill="#BECCE0" transform="translate(254.1123809814453,439.53656005859375)"/>
<path d="M0 0 C0.66 0 1.32 0 2 0 C2.25652344 0.78761719 2.51304687 1.57523437 2.77734375 2.38671875 C9.45107724 21.37427701 21.39752961 32.38040182 38 43 C36.86938499 45.38629805 35.85971397 47.16366704 34.125 49.1875 C31.32125016 52.89834538 29.79254326 56.71070005 28 61 C24.37 61 20.74 61 17 61 C16.443125 59.453125 15.88625 57.90625 15.3125 56.3125 C13.53673647 51.87934386 11.72791703 49.09144339 8 46 C7.236875 45.29875 6.47375 44.5975 5.6875 43.875 C-1.15034187 39.10441265 -7.76332624 38.25454436 -16 39 C-18.45479119 39.4969041 -20.63305423 40.15841928 -23 41 C-19.46788241 25.69415711 -11.09440212 11.09440212 0 0 Z " fill="#FBD1C7" transform="translate(272,71)"/>
<path d="M0 0 C16.26342717 -0.04625447 32.52682732 -0.08196691 48.79030418 -0.10362434 C56.34134533 -0.11394656 63.89234491 -0.12802488 71.44335938 -0.15087891 C78.02314106 -0.17078393 84.60289266 -0.18370956 91.18270361 -0.18817699 C94.66819014 -0.19078929 98.15359055 -0.19694878 101.63904953 -0.21146011 C105.52549632 -0.22751037 109.41185809 -0.22798155 113.29833984 -0.22705078 C114.45999161 -0.23424133 115.62164337 -0.24143188 116.8184967 -0.24884033 C117.87301529 -0.246091 118.92753387 -0.24334167 120.01400757 -0.24050903 C120.93395697 -0.24235262 121.85390636 -0.24419621 122.80173302 -0.24609566 C125 0 125 0 127 2 C127.3125 5.5 127.3125 5.5 127 9 C123.70548921 11.19634053 122.75347961 11.24823757 118.93171692 11.24050903 C117.36049828 11.24463303 117.36049828 11.24463303 115.75753784 11.24884033 C114.03447922 11.2380545 114.03447922 11.2380545 112.27661133 11.22705078 C110.46179008 11.22748886 110.46179008 11.22748886 108.61030579 11.22793579 C105.29231005 11.22678035 101.97456252 11.21674297 98.65661073 11.20278788 C95.1892687 11.19029393 91.72192344 11.18911107 88.25456238 11.18673706 C81.68851001 11.18051836 75.12252416 11.16410228 68.55650109 11.14403808 C61.0813715 11.12169121 53.60623875 11.11068871 46.13108408 11.10064721 C30.75401647 11.07973637 15.37701942 11.04415045 0 11 C0 7.37 0 3.74 0 0 Z " fill="#BECDE2" transform="translate(88,308)"/>
<path d="M0 0 C2.90207338 1.65406875 3.85066944 2.49099055 4.80541992 5.74536133 C5.01581909 7.39701294 5.01581909 7.39701294 5.23046875 9.08203125 C5.39401855 10.31373047 5.55756836 11.54542969 5.72607422 12.81445312 C5.88203477 14.14688529 6.03579722 15.47957636 6.1875 16.8125 C6.26728088 17.48450439 6.34706177 18.15650879 6.42926025 18.84887695 C6.83485452 22.27163228 7.21922002 25.6958288 7.58056641 29.12353516 C7.95152747 32.55201001 8.38282133 35.96684832 8.82421875 39.38671875 C9.841795 48.69410737 10.03475722 55.45813192 4.25 63.1875 C1.69996317 66.32239108 -1.14064299 69.14948101 -4 72 C-5.79246661 69.5630847 -7.58400284 67.12549489 -9.375 64.6875 C-9.88289063 63.99720703 -10.39078125 63.30691406 -10.9140625 62.59570312 C-11.40390625 61.92861328 -11.89375 61.26152344 -12.3984375 60.57421875 C-12.84880371 59.96151123 -13.29916992 59.34880371 -13.76318359 58.7175293 C-16.5676679 54.8230273 -17.21052653 53.28746754 -16.7265625 48.53515625 C-16.61602539 47.37387207 -16.50548828 46.21258789 -16.39160156 45.01611328 C-16.32734985 44.3749054 -16.26309814 43.73369751 -16.19689941 43.07305908 C-15.98706554 40.86381928 -15.81356934 38.65386383 -15.64746094 36.44091797 C-15.3353895 32.29145948 -14.97830199 28.14758724 -14.60009766 24.00366211 C-14.44870825 22.27779005 -14.30958855 20.55080219 -14.18212891 18.82299805 C-13.99343005 16.29362528 -13.7628347 13.77110864 -13.5234375 11.24609375 C-13.47520844 10.47631699 -13.42697937 9.70654022 -13.37728882 8.91343689 C-13.06242199 5.94933071 -12.71874425 3.64449938 -10.43804932 1.59939575 C-6.66354504 -0.66430641 -4.14417584 -1.68007129 0 0 Z " fill="#FC6C8C" transform="translate(310,257)"/>
<path d="M0 0 C1.62898763 21.14927165 1.62898763 21.14927165 -1.875 27.28125 C-4.45852735 29.50954234 -7.08725559 31.22873651 -10 33 C-11.90541707 34.65307805 -13.78174913 36.34037704 -15.625 38.0625 C-17.08333333 39.375 -18.54166667 40.6875 -20 42 C-22.74790654 40.07646542 -25.36113799 38.06850278 -28 36 C-28.8677002 35.37931641 -28.8677002 35.37931641 -29.75292969 34.74609375 C-41.09343693 26.54306842 -41.09343693 26.54306842 -42.62792969 20.54589844 C-43.20497887 14.96497876 -42.7377434 9.54478568 -42 4 C-41.28046143 4.01571045 -40.56092285 4.0314209 -39.81958008 4.04760742 C-26.30062106 4.3040705 -12.57540863 0 0 0 Z " fill="#FDD2C8" transform="translate(327,200)"/>
<path d="M0 0 C4.61618947 1.9959524 7.46541044 4.70679052 9.89453125 9.10546875 C11.85920964 14.41737699 11.40729364 19.41684893 9.61328125 24.69921875 C6.36058286 29.36141978 2.29631586 32.93104302 -3.26171875 34.38671875 C-9.09117478 35.05567272 -12.60234305 34.38570839 -17.4296875 30.99609375 C-21.20387634 27.68060163 -23.73431964 24.09839028 -24.703125 19.1171875 C-24.99065279 13.67270974 -23.7057849 9.60779982 -20.26171875 5.38671875 C-14.17112456 -0.61065205 -8.37558796 -2.27110071 0 0 Z " fill="#FBFBFC" transform="translate(268.26171875,120.61328125)"/>
<path d="M0 0 C5.28493805 1.76164602 7.84136626 4.57791276 11 9 C12.69009362 14.25445773 13.35619746 20.29215608 10.8359375 25.32421875 C8.0321696 29.21354807 5.36069339 31.87977898 1 34 C-4.70809933 34.86705306 -11.0139267 35.22744074 -16.0625 32.0625 C-20.77528534 27.92415865 -22.71530798 22.39954701 -23.4375 16.3125 C-22.5624256 9.68693668 -19.61138101 6.28803476 -14.62109375 2.19921875 C-10.23371739 -1.04638256 -5.24863262 -0.40145349 0 0 Z " fill="#FCFCFC" transform="translate(333,120)"/>
<path d="M0 0 C8.5534877 -0.06947395 17.10685775 -0.12279776 25.66055775 -0.15543652 C29.63228627 -0.17110056 33.60382193 -0.19235199 37.57543945 -0.22631836 C41.40743089 -0.25888596 45.23923668 -0.27684745 49.07135582 -0.28463173 C50.53422659 -0.29017996 51.99708707 -0.30101425 53.45987892 -0.31719017 C55.50708696 -0.33893079 57.5535254 -0.34196847 59.60083008 -0.34057617 C61.34956169 -0.35056892 61.34956169 -0.35056892 63.13362122 -0.36076355 C66 0 66 0 67.87651062 1.32987976 C69.62431268 3.9280704 69.38754012 5.96426902 69 9 C65.41483972 11.39010685 63.85733033 11.24326602 59.60083008 11.22705078 C58.95665634 11.22734283 58.3124826 11.22763489 57.64878845 11.22793579 C55.52223177 11.22654384 53.39602663 11.21098938 51.26953125 11.1953125 C49.79408459 11.19158188 48.31863545 11.18873514 46.84318542 11.18673706 C42.96169178 11.17910442 39.08034804 11.15945917 35.19891357 11.1373291 C31.23744739 11.11686269 27.27595695 11.10773365 23.31445312 11.09765625 C15.54290044 11.07621286 7.77147123 11.04208145 0 11 C0 7.37 0 3.74 0 0 Z " fill="#BDCCE1" transform="translate(171,402)"/>
<path d="M0 0 C1.94187787 0.81520417 3.79359098 1.67052921 5.64453125 2.67578125 C6.64033203 3.21235352 6.64033203 3.21235352 7.65625 3.75976562 C8.33816406 4.13294922 9.02007812 4.50613281 9.72265625 4.890625 C10.42003906 5.26767578 11.11742187 5.64472656 11.8359375 6.03320312 C13.55033927 6.96085888 15.26179286 7.89395954 16.97265625 8.828125 C15.52823335 17.49352594 12.86126175 25.55921614 9.97265625 33.828125 C6.57201217 32.55325733 3.57141649 31.08873819 0.50390625 29.1484375 C-0.31464844 28.63152344 -1.13320313 28.11460937 -1.9765625 27.58203125 C-2.81832031 27.04449219 -3.66007812 26.50695312 -4.52734375 25.953125 C-5.36910156 25.42332031 -6.21085937 24.89351563 -7.078125 24.34765625 C-11.24763789 21.70149295 -15.25330391 19.02987192 -19.02734375 15.828125 C-16.29676969 13.12026119 -13.54001694 10.44070123 -10.77734375 7.765625 C-10.00003906 6.99412109 -9.22273438 6.22261719 -8.421875 5.42773438 C-7.66777344 4.70263672 -6.91367187 3.97753906 -6.13671875 3.23046875 C-5.44545898 2.55491943 -4.75419922 1.87937012 -4.04199219 1.18334961 C-2.02734375 -0.171875 -2.02734375 -0.171875 0 0 Z " fill="#FBFBFB" transform="translate(334.02734375,232.171875)"/>
<path d="M0 0 C2.07840578 1.33617598 3.85483562 2.79810941 5.68774414 4.45556641 C6.37481445 5.07044922 7.06188477 5.68533203 7.76977539 6.31884766 C8.81198242 7.25277344 8.81198242 7.25277344 9.87524414 8.20556641 C11.2052638 9.35524441 12.53833576 10.50140631 13.87524414 11.64306641 C14.86524414 12.48869141 15.85524414 13.33431641 16.87524414 14.20556641 C15.58032595 18.09032099 14.08137518 18.61356918 10.63305664 20.74462891 C9.03397461 21.73849609 9.03397461 21.73849609 7.40258789 22.75244141 C6.27981445 23.43822266 5.15704102 24.12400391 4.00024414 24.83056641 C2.88520508 25.52408203 1.77016602 26.21759766 0.62133789 26.93212891 C-7.67360885 32.05518407 -7.67360885 32.05518407 -11.12475586 33.20556641 C-12.30770619 30.16998642 -13.46810855 27.12625547 -14.62475586 24.08056641 C-14.95862305 23.22462891 -15.29249023 22.36869141 -15.63647461 21.48681641 C-17.3633498 16.90531081 -18.58213285 13.1877086 -18.12475586 8.20556641 C-15.55177804 6.6438287 -12.96884124 5.10649898 -10.37475586 3.58056641 C-9.2803418 2.91154297 -9.2803418 2.91154297 -8.16381836 2.22900391 C-7.1003418 1.61025391 -7.1003418 1.61025391 -6.01538086 0.97900391 C-5.36601562 0.59147949 -4.71665039 0.20395508 -4.04760742 -0.1953125 C-2.12475586 -0.79443359 -2.12475586 -0.79443359 0 0 Z " fill="#FBFBFB" transform="translate(280.124755859375,232.79443359375)"/>
<path d="M0 0 C0 3.3 0 6.6 0 10 C-8.22987297 12.16575604 -15.99351394 13.1653151 -24.5 13.125 C-25.72396484 13.13080078 -25.72396484 13.13080078 -26.97265625 13.13671875 C-31.75356418 13.12904474 -36.28557351 12.79841094 -41 12 C-41 15.63 -41 19.26 -41 23 C-41.33 23 -41.66 23 -42 23 C-42 16.73 -42 10.46 -42 4 C-40.27394531 4.03480469 -38.54789062 4.06960937 -36.76953125 4.10546875 C-24.28845069 4.28063226 -11.57478567 0 0 0 Z " fill="#F19A9A" transform="translate(327,200)"/>
<path d="M0 0 C-0.52268466 2.76276177 -1.10869587 5.3260876 -2 8 C-2.1219395 10.49267028 -2.18511037 12.94511802 -2.1875 15.4375 C-2.20876953 17.41556641 -2.20876953 17.41556641 -2.23046875 19.43359375 C-2.01435514 22.7778603 -1.56784479 24.17787938 0 27 C0.24636612 29.70017269 0.09065666 32.28030006 0 35 C-3.30843123 35.37810643 -4.75311885 35.15283119 -7.625 33.375 C-11.84903597 29.15096403 -13.3847454 25.06292839 -13.45898438 19.078125 C-13.45189453 18.39234375 -13.44480469 17.7065625 -13.4375 17 C-13.45748047 16.31421875 -13.47746094 15.6284375 -13.49804688 14.921875 C-13.49316616 9.80688946 -12.19758778 6.93097947 -9 3 C-5.56397188 0.42297891 -4.39927132 0 0 0 Z " fill="#F19899" transform="translate(237,122)"/>
<path d="M0 0 C2.06640625 1.046875 2.06640625 1.046875 4 3 C4.61600155 5.82140333 5.01102227 8.33719271 5.25 11.1875 C5.32734375 11.93708984 5.4046875 12.68667969 5.484375 13.45898438 C5.67244395 15.30441097 5.83838576 17.1520687 6 19 C4.41251953 18.95552734 4.41251953 18.95552734 2.79296875 18.91015625 C-0.51793424 18.98858135 -2.64332352 19.29525066 -5.6875 20.4375 C-8.44637268 21.45186349 -11.14348191 22.30743157 -14 23 C-13.86685676 19.74538757 -13.65907013 16.49969525 -13.4375 13.25 C-13.40076172 12.32960938 -13.36402344 11.40921875 -13.32617188 10.4609375 C-12.82000312 3.80843386 -12.82000312 3.80843386 -10.44262695 1.46459961 C-6.71029841 -0.75563983 -4.06629546 -1.64849816 0 0 Z " fill="#E2486D" transform="translate(310,257)"/>
<path d="M0 0 C2.71095632 3.3200258 5.19857706 6.71878023 7.625 10.25 C14.49679766 19.70030953 23.01060976 26.09372554 33 32 C30.49038462 37.18010355 30.49038462 37.18010355 28 39 C21.13718072 38.35847559 15.21450345 30.47089656 10.75 25.6875 C5.11481796 18.83563093 0 8.94178833 0 0 Z " fill="#F39A9A" transform="translate(277,82)"/>
<path d="M0 0 C0.88816406 0.20109375 1.77632813 0.4021875 2.69140625 0.609375 C7.58800267 0.85171019 12.36005123 0.84711697 17.19140625 -0.015625 C19.69140625 -0.390625 19.69140625 -0.390625 22.69140625 1.609375 C22.87890625 5.234375 22.87890625 5.234375 22.69140625 8.609375 C17.43629623 11.20262773 13.39801695 12.08358955 7.56640625 11.984375 C6.87675781 11.99597656 6.18710937 12.00757813 5.4765625 12.01953125 C1.05494811 11.99416826 -1.81538219 11.35263153 -5.30859375 8.609375 C-6.37109375 6.171875 -6.37109375 6.171875 -6.30859375 3.609375 C-3.44068729 -0.58218059 -3.44068729 -0.58218059 0 0 Z " fill="#F99D9D" transform="translate(289.30859375,168.390625)"/>
<path d="M0 0 C1.44096586 0.42594588 2.87768712 0.86626633 4.3125 1.3125 C5.11300781 1.55613281 5.91351563 1.79976562 6.73828125 2.05078125 C9.26292927 3.11034855 10.45784879 3.73069521 12 6 C12.8292876 11.94696333 13.19055596 18.74727227 10.3125 24.1875 C7.97673215 27.02829874 6.38696932 28.59564687 3 30 C0.1875 30.1875 0.1875 30.1875 -2 30 C-2.25654136 25.89533822 -2.16298059 23.02879158 -0.5 19.25 C2.00771573 13.19362994 1.81090601 6.25054653 0 0 Z " fill="#F19898" transform="translate(354,127)"/>
<path d="M0 0 C1.82312056 0.87401661 3.63330341 1.77505917 5.4375 2.6875 C6.44683594 3.18636719 7.45617187 3.68523437 8.49609375 4.19921875 C11 6 11 6 12.125 8.1875 C11.93096067 12.55338496 9.7939368 15.63506587 7.5625 19.3125 C7.12873047 20.05306641 6.69496094 20.79363281 6.24804688 21.55664062 C5.17829429 23.37874668 4.09083974 25.19043935 3 27 C2.67 27 2.34 27 2 27 C1.66078548 23.81309767 1.32970583 20.62539896 1 17.4375 C0.90460938 16.54224609 0.80921875 15.64699219 0.7109375 14.72460938 C0.20432035 9.78509212 -0.10897382 4.96511986 0 0 Z " fill="#C4CDE2" transform="translate(326,268)"/>
<path d="M0 0 C-0.45263663 8.82641419 -1.14520646 17.33829426 -3 26 C-6.10836969 23.32201996 -7.76137907 20.08573456 -9.6875 16.5 C-10.31011719 15.3553125 -10.93273437 14.210625 -11.57421875 13.03125 C-13 10 -13 10 -13 7 C-10.6640625 5.17578125 -10.6640625 5.17578125 -7.625 3.3125 C-6.62726563 2.68988281 -5.62953125 2.06726563 -4.6015625 1.42578125 C-2 0 -2 0 0 0 Z " fill="#C4CEE3" transform="translate(287,268)"/>
</svg>
